<svg width="321" height="321" viewBox="0 0 321 321" fill="none" xmlns="http://www.w3.org/2000/svg">
<path d="M96.332 25.7763H41.8198V82.5997H96.332V25.7763Z" fill="#E0E0E0"/>
<path d="M92.6406 25.7763H38.1284V82.5997H92.6406V25.7763Z" fill="#EBEBEB"/>
<path d="M85.3153 33.4161H45.46V74.9599H85.3153V33.4161Z" fill="#FAFAFA"/>
<path d="M45.4598 75.236C45.1666 75.6547 44.8333 76.0438 44.4647 76.398C43.8227 77.04 42.9239 77.9709 41.8967 78.966C40.8695 79.9611 39.9707 80.8406 39.3287 81.4634C38.9815 81.8237 38.601 82.1504 38.1924 82.4392C38.4741 82.0191 38.799 81.6297 39.1618 81.2772C39.8038 80.6352 40.7026 79.6979 41.7298 78.7092C42.757 77.7205 43.6558 76.8346 44.3299 76.2054C44.67 75.8419 45.0489 75.5168 45.4598 75.236Z" fill="#E0E0E0"/>
<path d="M85.3154 75.114C85.723 75.4089 86.1013 75.7421 86.4453 76.1091C87.0873 76.7511 88.0182 77.6499 89.0133 78.6771C90.0084 79.7043 90.8816 80.6031 91.5107 81.2451C91.8729 81.5906 92.1998 81.9713 92.4866 82.3814C92.0759 82.093 91.6971 81.7615 91.3567 81.3928C90.7147 80.7508 89.7838 79.852 88.7887 78.8248C87.7936 77.7976 86.9204 76.8988 86.2913 76.2568C85.9266 75.9113 85.5995 75.5282 85.3154 75.114Z" fill="#E0E0E0"/>
<path d="M85.2061 33.5252C85.4985 33.1158 85.8319 32.7372 86.2012 32.3953C86.8432 31.7533 87.7355 30.8224 88.737 29.8273C89.7386 28.8322 90.663 27.9527 91.3371 27.3299C91.6856 26.9684 92.0683 26.6416 92.4799 26.3541C92.1862 26.7606 91.8528 27.1369 91.4848 27.4776C90.8428 28.1196 89.9504 29.0569 88.9168 30.0456C87.8832 31.0343 86.9908 31.9202 86.3103 32.5494C85.9761 32.9111 85.6061 33.2381 85.2061 33.5252Z" fill="#E0E0E0"/>
<path d="M45.3508 33.628C44.9433 33.3331 44.5649 32.9998 44.2209 32.6329C43.5789 31.9909 42.6416 31.0921 41.6529 30.0649C40.6642 29.0377 39.7783 28.1389 39.1491 27.4969C38.7876 27.1526 38.4627 26.7718 38.1797 26.3605C38.5857 26.6525 38.962 26.9836 39.3032 27.3492C39.9452 27.9912 40.8825 28.89 41.8712 29.9172C42.8599 30.9444 43.7458 31.8432 44.375 32.4852C44.7396 32.8307 45.0667 33.2137 45.3508 33.628Z" fill="#E0E0E0"/>
<path d="M85.2063 74.9599C85.2063 74.9599 85.2063 74.8893 85.2063 74.7609C85.2063 74.6325 85.2063 74.4271 85.2063 74.1831C85.2063 73.6631 85.2063 72.8991 85.2063 71.9425C85.2063 69.978 85.2063 67.1147 85.2063 63.4745C85.2063 56.2007 85.1678 45.8324 85.1357 33.4161L85.2705 33.5445H45.5243L45.6719 33.3968C45.6719 48.6443 45.6719 62.9288 45.6719 74.9407L45.5435 74.8123L74.3308 74.8765L82.4072 74.915H84.545H82.4393H74.3822L45.4922 74.9792H45.3638V74.8508C45.3638 62.8197 45.3638 48.5288 45.3638 33.307V33.1529H45.5178H85.2641H85.3925V33.2877C85.3925 45.7361 85.3411 56.1365 85.3283 63.4617C85.3283 67.089 85.3283 69.9395 85.2898 71.8976C85.2898 72.8606 85.2898 73.6053 85.2898 74.1125C85.2898 74.3564 85.2898 74.5426 85.2898 74.6774C85.2898 74.8123 85.2063 74.9599 85.2063 74.9599Z" fill="#E0E0E0"/>
<path d="M55.9761 50.7694C55.9761 50.7694 55.1222 61.0414 66.2481 61.0414C66.2609 55.5651 61.7348 51.2316 55.9761 50.7694Z" fill="#EBEBEB"/>
<path d="M76.3594 50.7758C76.3594 50.7758 66.0874 49.9219 66.0874 61.0478C71.5637 61.067 75.8972 56.5345 76.3594 50.7758Z" fill="#EBEBEB"/>
<path d="M65.7663 45.1454C65.7663 45.1454 57.3625 52.6889 66.2285 61.0542C70.3502 56.6886 69.9778 49.8385 65.7663 45.1454Z" fill="#E0E0E0"/>
<path d="M236.68 233.855C233.287 231.735 229.456 230.417 225.477 230.003C223.647 229.817 221.625 229.868 220.174 230.979C220.006 231.078 219.867 231.22 219.771 231.39C219.675 231.56 219.626 231.753 219.628 231.948C219.719 232.217 219.904 232.445 220.148 232.59C224.706 236.063 231.601 236.506 236.68 233.842" fill="#E0E0E0"/>
<path d="M236.391 233.534C233.796 231.631 231.375 229.501 229.156 227.172C226.927 224.825 225.361 221.93 224.617 218.781C224.424 217.824 224.366 216.733 224.976 215.975C230.754 220.469 235.248 226.305 236.391 233.534Z" fill="#E0E0E0"/>
<path d="M236.622 233.81C236.087 230.661 236.13 227.441 236.751 224.308C237.476 221.208 239.165 218.241 241.816 216.47C242.811 218.8 242.381 221.484 241.681 223.917C240.593 227.689 238.898 231.258 236.661 234.484" fill="#E0E0E0"/>
<path d="M242.271 243.96C238.843 244.377 235.851 246.188 233.283 248.505C230.711 250.852 228.919 253.931 228.147 257.326C231.518 257.121 234.375 254.758 236.442 252.088C238.509 249.417 239.954 246.502 242.22 244.011" fill="#E0E0E0"/>
<path d="M243.504 245.559C242.154 242.128 241.682 238.415 242.13 234.755C242.579 231.096 243.934 227.607 246.072 224.604C248.031 231.557 247.311 239.415 243.504 245.559Z" fill="#E0E0E0"/>
<path d="M250.971 254.457C247.833 254.261 244.708 254.993 241.984 256.562C239.26 258.13 237.058 260.466 235.652 263.278C235.46 263.657 235.293 264.138 235.55 264.478C235.682 264.606 235.843 264.7 236.02 264.752C236.197 264.803 236.384 264.811 236.564 264.774C239.581 264.581 242.259 262.764 244.467 260.697C246.676 258.63 248.602 256.235 251.041 254.45" fill="#E0E0E0"/>
<path d="M250.733 253.975C249.126 248.796 249.028 243.267 250.451 238.034C251.009 235.98 251.953 233.823 253.853 232.86C253.929 232.809 254.014 232.774 254.104 232.759C254.193 232.743 254.285 232.747 254.373 232.77C254.526 232.851 254.643 232.986 254.701 233.149C255.337 234.584 255.612 236.153 255.503 237.72C255.389 239.28 255.149 240.828 254.784 242.349C254.187 245.18 253.873 248.223 252.319 250.662C251.951 251.248 251.62 251.857 251.33 252.486C251.035 253.128 251.035 253.327 250.765 253.821" fill="#E0E0E0"/>
<path d="M270.507 256.922C269.043 251.343 270.597 244.589 274.108 240.018C274.372 239.684 274.712 239.325 275.136 239.376C275.778 239.434 275.951 240.301 275.919 240.949C275.656 246.681 273.78 252.222 270.507 256.935" fill="#E0E0E0"/>
<path d="M272.292 258.135C279.065 259.901 286.833 258.187 292.463 254.033C289.088 252.341 285.232 251.87 281.549 252.698C277.903 253.532 274.571 255.163 272.298 258.135" fill="#E0E0E0"/>
<path d="M273.794 254.425C277.588 248.242 284.856 244.21 292.104 243.844C291.269 246.791 288.842 249.077 286.114 250.463C283.385 251.85 280.336 252.447 277.325 253.031C276.157 253.256 274.552 253.507 273.794 254.425Z" fill="#E0E0E0"/>
<path d="M270.885 236.423C271.913 232.905 272.946 229.361 273.229 225.702C273.511 222.042 272.985 218.235 271.091 215.096C267.547 221.952 267.194 229.958 270.776 236.789" fill="#E0E0E0"/>
<path d="M282.814 230.395C286.955 222.864 295.404 216.855 303.955 216.007C300.655 224.225 291.661 230.568 282.814 230.395Z" fill="#E0E0E0"/>
<path d="M280.207 231.871C286.383 232.808 291.647 236.757 297.419 239.145C298.628 239.732 299.97 239.988 301.31 239.89C301.934 239.887 302.543 239.691 303.053 239.33C303.563 238.969 303.949 238.46 304.16 237.871C304.37 237.283 304.394 236.644 304.229 236.042C304.063 235.439 303.717 234.902 303.236 234.503C302.418 233.749 301.457 233.167 300.411 232.789C294.119 230.17 287.378 230.106 280.753 231.691" fill="#E0E0E0"/>
<path d="M276.631 236.205C278.031 236.603 278.506 237.328 279.617 238.272C283.393 241.481 287.86 243.775 292.668 244.974C293.169 245.096 293.818 245.148 294.068 244.698C294.318 244.249 294.01 243.825 293.728 243.479C291.631 241.018 288.91 239.168 285.85 238.124C282.833 237.007 280.227 235.653 276.631 235.941" fill="#E0E0E0"/>
<path d="M272.593 210.03C275.129 212.363 278.124 214.139 281.387 215.245C284.65 216.35 288.108 216.761 291.539 216.45C291.854 216.457 292.16 216.347 292.399 216.142C292.874 215.622 292.303 214.82 291.757 214.389C286.184 210.05 279.443 208.246 272.6 210.005" fill="#E0E0E0"/>
<path d="M277.376 208.284C280.729 205.815 284.619 204.175 288.727 203.496C292.835 202.818 297.046 203.121 301.014 204.381C298.036 207.315 293.907 208.875 289.747 209.324C285.594 209.704 281.407 209.352 277.376 208.284Z" fill="#E0E0E0"/>
<path d="M275.476 196.259C274.93 190.7 275.283 186.315 274.898 180.729C274.898 180.28 274.776 179.747 274.359 179.587C273.775 179.362 273.293 180.075 273.075 180.665C272.265 183.254 272.058 185.994 272.468 188.676C272.879 191.357 273.897 193.909 275.444 196.137" fill="#E0E0E0"/>
<path d="M275.078 196.869C278.846 194.539 281.671 191.502 284.284 187.926C286.101 185.435 287.635 182.456 287.224 179.4C284.656 179.349 282.242 180.755 280.58 182.7C278.995 184.714 277.843 187.033 277.196 189.512C276.458 191.958 275.944 194.468 275.078 196.869Z" fill="#E0E0E0"/>
<path d="M284.123 194.359C292.41 191.29 300.083 186.766 306.78 180.999C304.077 179.908 301.002 180.562 298.273 181.641C292.091 184.138 287.038 188.35 284.008 194.282" fill="#E0E0E0"/>
<path d="M277.62 199.912C281.806 200.368 286.056 200.67 290.203 199.977C294.351 199.283 298.138 197.678 301.946 196.073C302.285 195.969 302.572 195.74 302.748 195.431C302.807 195.255 302.811 195.064 302.759 194.886C302.708 194.707 302.603 194.548 302.459 194.43C302.167 194.196 301.824 194.036 301.458 193.961C297.317 192.799 292.842 193.319 288.765 194.719C284.881 196.036 281.145 197.758 277.62 199.855" fill="#E0E0E0"/>
<path d="M253.738 210.223C250.887 204.445 251.073 197.742 253.532 191.804C255.272 194.449 255.458 197.813 255.163 200.965C254.868 204.117 253.879 207.347 253.828 210.512" fill="#E0E0E0"/>
<path d="M242.336 204.471C238.763 204.424 235.221 205.124 231.934 206.524C228.648 207.925 225.69 209.996 223.249 212.605C226.806 213.163 230.465 212.245 233.701 210.679C236.936 209.112 239.813 206.885 242.689 204.682" fill="#E0E0E0"/>
<path d="M234.676 201.909C231.19 201.627 227.833 201.196 224.482 202.224C221.13 203.251 218.062 205.581 216.72 208.811C220.008 209.075 223.307 208.452 226.273 207.007C229.22 205.561 232.033 203.855 234.676 201.909Z" fill="#E0E0E0"/>
<path d="M246.021 202.025C242.888 199.97 239.665 197.884 236.018 197.03C232.372 196.176 228.135 196.805 225.586 199.559C228.546 201.293 232.128 201.485 235.556 201.485C238.984 201.485 243.183 201.44 246.412 202.583" fill="#E0E0E0"/>
<path d="M246.04 202.191C240.68 196.927 238.651 187.47 240.808 180.28C245.038 186.757 246.888 194.502 246.04 202.191Z" fill="#E0E0E0"/>
<path d="M260.78 187.278C261.795 184.928 262.501 182.463 263.412 180.068C264.238 177.641 265.507 175.388 267.155 173.423C268.834 171.45 271.22 170.215 273.8 169.982C272.974 173.608 271.402 177.022 269.183 180.006C266.965 182.991 264.149 185.48 260.915 187.316" fill="#E0E0E0"/>
<path d="M258.116 190.385C256.441 188.087 254.508 184.96 252.242 183.24C249.976 181.519 247.016 180.479 244.249 181.14C245.683 183.653 247.683 185.796 250.09 187.401C252.497 189.006 255.245 190.027 258.116 190.385Z" fill="#E0E0E0"/>
<path d="M258.649 187.464C257.551 184.678 256.447 181.859 256.004 178.9C255.561 175.94 255.83 172.775 257.346 170.194C260.286 175.754 261.236 181.75 258.797 187.528" fill="#E0E0E0"/>
<path d="M260.806 170.201C262.475 164.686 267.521 160.622 272.972 158.76C273.649 158.486 274.382 158.376 275.11 158.439C275.472 158.481 275.814 158.628 276.093 158.862C276.373 159.096 276.578 159.406 276.683 159.755C276.882 160.693 276.105 161.534 275.399 162.156C271.136 165.794 266.181 168.53 260.832 170.201" fill="#E0E0E0"/>
<path d="M260.87 165.687C261.082 162.137 261.3 158.529 262.456 155.159C263.611 151.788 265.846 148.629 269.088 147.159C269.64 150.748 268.054 154.318 266.141 157.431C264.228 160.545 261.929 163.434 260.78 166.881" fill="#E0E0E0"/>
<path d="M260.78 168.14C259.406 164.121 259.259 159.017 256.858 155.512C255.176 153.066 252.479 151.396 251.028 148.809C250.153 151.294 250.275 154.02 251.369 156.417C252.462 158.789 253.968 160.948 255.818 162.792C257.602 164.718 259.124 166.124 260.78 168.14Z" fill="#E0E0E0"/>
<path d="M260.806 286.48C260.703 286.48 260.607 259.67 260.6 226.613C260.594 193.557 260.671 166.734 260.78 166.734C260.889 166.734 260.979 193.537 260.986 226.613C260.992 259.689 260.915 286.48 260.806 286.48Z" fill="#E0E0E0"/>
<path d="M284.232 206.178C283.909 206.336 283.572 206.463 283.225 206.557L280.451 207.494C278.114 208.291 274.898 209.42 271.412 210.871C267.926 212.322 264.703 213.555 262.847 215.16C262.109 215.78 261.521 216.559 261.127 217.439C260.864 218.081 260.819 218.453 260.78 218.447C260.765 218.353 260.765 218.258 260.78 218.164C260.822 217.898 260.889 217.636 260.979 217.381C261.329 216.446 261.905 215.613 262.655 214.954C263.775 214.009 265.027 213.232 266.372 212.65C267.855 211.956 269.505 211.231 271.251 210.512C274.75 209.08 277.992 207.944 280.355 207.231C281.536 206.865 282.499 206.589 283.173 206.409C283.518 206.299 283.873 206.221 284.232 206.178Z" fill="#E0E0E0"/>
<path d="M291.911 187.316C291.911 187.316 291.828 187.432 291.629 187.618L290.768 188.427L287.558 191.342L276.869 200.863C272.696 204.573 269.094 208.124 266.597 210.794C265.345 212.13 264.357 213.234 263.682 214.004C263.374 214.364 263.117 214.646 262.906 214.89C262.694 215.134 262.63 215.198 262.617 215.186C262.683 215.065 262.761 214.951 262.848 214.845C263.008 214.627 263.246 214.306 263.567 213.908C264.209 213.105 265.165 211.982 266.392 210.608C269.618 207.084 273.029 203.734 276.612 200.574C280.798 196.863 284.612 193.512 287.379 191.136L290.672 188.311L291.577 187.56C291.679 187.467 291.791 187.385 291.911 187.316Z" fill="#E0E0E0"/>
<path d="M272.369 204.637C272.26 204.586 273.126 202.577 273.999 200.028C274.873 197.479 275.283 195.335 275.399 195.354C275.515 195.373 275.251 197.575 274.365 200.156C273.995 201.249 273.566 202.32 273.081 203.366C272.906 203.822 272.666 204.25 272.369 204.637Z" fill="#E0E0E0"/>
<path d="M260.832 220.848C260.592 220.623 260.377 220.374 260.19 220.103L258.54 217.991C257.159 216.2 255.246 213.735 253.102 211.032C250.958 208.329 248.987 205.896 247.562 204.156L245.886 202.082C245.666 201.838 245.472 201.571 245.308 201.286C245.562 201.495 245.795 201.73 246.001 201.986C246.432 202.448 247.042 203.135 247.78 203.989C249.263 205.703 251.272 208.098 253.417 210.807C255.561 213.516 257.448 216.007 258.777 217.837C259.419 218.755 259.965 219.5 260.324 220.026C260.517 220.285 260.687 220.56 260.832 220.848Z" fill="#E0E0E0"/>
<path d="M255.696 214.267C255.632 214.338 254.264 212.707 253.545 210.242C253.14 208.928 252.975 207.551 253.057 206.178H253.224C253.153 206.486 253.096 206.653 253.064 206.647C253.031 206.641 253.031 206.467 253.064 206.153H253.237C253.317 207.49 253.548 208.815 253.924 210.101C254.611 212.502 255.798 214.203 255.696 214.267Z" fill="#E0E0E0"/>
<path d="M249.096 205.928C248.634 205.574 248.13 205.281 247.594 205.055C246.242 204.651 244.82 204.537 243.421 204.721C242.005 204.83 240.6 205.058 239.222 205.402C238.658 205.582 238.08 205.72 237.495 205.812C238.011 205.507 238.569 205.28 239.151 205.138C240.531 204.71 241.955 204.44 243.395 204.336C244.845 204.143 246.321 204.301 247.696 204.798C248.281 204.998 248.777 205.398 249.096 205.928Z" fill="#E0E0E0"/>
<path d="M247.491 203.906C247.491 203.963 246.618 203.553 245.192 203.065C241.464 201.787 237.47 201.484 233.592 202.185C232.109 202.448 231.21 202.724 231.19 202.66C231.378 202.542 231.584 202.455 231.8 202.403C232.369 202.204 232.95 202.041 233.54 201.915C237.457 201.055 241.54 201.365 245.282 202.808C245.844 203.023 246.393 203.272 246.926 203.553C247.305 203.758 247.504 203.88 247.491 203.906Z" fill="#E0E0E0"/>
<path d="M260.78 195.354C260.678 195.354 259.927 192.786 259.105 189.525C258.283 186.263 257.692 183.625 257.821 183.599C257.949 183.574 258.675 186.167 259.496 189.429C260.318 192.69 260.883 195.328 260.78 195.354Z" fill="#E0E0E0"/>
<path d="M260.89 195.354C260.774 195.393 260.286 193.646 259.028 191.862C258.239 190.807 257.317 189.857 256.287 189.037C256.677 189.134 257.04 189.321 257.346 189.583C258.123 190.152 258.798 190.849 259.343 191.643C260.173 192.724 260.707 194.003 260.89 195.354Z" fill="#E0E0E0"/>
<path d="M260.806 272.208C260.767 272.208 260.684 271.566 260.382 270.423C259.94 268.821 259.34 267.266 258.591 265.782C256.742 262 253.372 257.198 249.089 252.396C246.964 249.969 244.91 247.684 243.164 245.494C241.595 243.566 240.177 241.521 238.92 239.376C238.08 237.929 237.364 236.413 236.782 234.844C236.583 234.279 236.442 233.849 236.359 233.56C236.303 233.393 236.269 233.221 236.256 233.046C236.294 233.046 236.487 233.688 236.93 234.754C237.564 236.292 238.311 237.781 239.164 239.209C240.444 241.319 241.875 243.334 243.446 245.238C245.199 247.401 247.26 249.68 249.385 252.107C253.68 256.928 257.044 261.782 258.848 265.634C259.58 267.143 260.146 268.728 260.536 270.359C260.643 270.801 260.723 271.249 260.774 271.701C260.804 271.868 260.815 272.038 260.806 272.208Z" fill="#E0E0E0"/>
<path d="M281.979 248.281C281.622 248.517 281.251 248.731 280.869 248.923C279.865 249.494 278.903 250.138 277.993 250.849C276.644 251.897 275.379 253.05 274.211 254.296C272.882 255.696 271.515 257.326 270.122 259.066C267.335 262.565 264.729 265.66 263.169 268.131C262.373 269.358 261.795 270.391 261.416 271.117C261.241 271.504 261.037 271.877 260.806 272.234C260.824 272.124 260.859 272.018 260.909 271.919C260.992 271.72 261.108 271.418 261.281 271.052C261.771 269.998 262.322 268.974 262.931 267.984C264.453 265.454 267.04 262.315 269.82 258.822C271.219 257.076 272.6 255.445 273.954 254.046C275.142 252.803 276.43 251.661 277.806 250.63C278.742 249.939 279.737 249.331 280.779 248.814C281.145 248.627 281.421 248.512 281.646 248.428C281.745 248.357 281.859 248.306 281.979 248.281Z" fill="#E0E0E0"/>
<path d="M282.39 256.036C281.619 256.209 280.836 256.323 280.047 256.376C278.165 256.572 276.304 256.937 274.487 257.468C272.692 258.054 271.008 258.937 269.505 260.081C268.356 260.973 267.817 261.705 267.766 261.66C267.846 261.46 267.964 261.277 268.112 261.121C268.477 260.654 268.885 260.224 269.332 259.837C270.817 258.6 272.526 257.661 274.365 257.07C276.207 256.524 278.104 256.188 280.021 256.068C280.808 255.985 281.601 255.974 282.39 256.036Z" fill="#E0E0E0"/>
<path d="M268.446 260.812C268.324 260.742 269.383 259.124 270.199 256.961C271.014 254.797 271.149 252.852 271.29 252.871C271.351 253.298 271.338 253.732 271.252 254.155C271.134 255.166 270.904 256.161 270.565 257.121C270.21 258.073 269.754 258.983 269.204 259.837C269.006 260.201 268.75 260.531 268.446 260.812Z" fill="#E0E0E0"/>
<path d="M288.836 227.454C288.716 227.532 288.589 227.598 288.457 227.653L287.353 228.154C286.871 228.359 286.287 228.623 285.626 228.969C284.965 229.316 284.194 229.663 283.385 230.151L282.101 230.876C281.658 231.133 281.215 231.435 280.753 231.723C279.809 232.301 278.866 233.007 277.858 233.72C273.539 236.945 269.771 240.847 266.7 245.276C266.019 246.31 265.345 247.279 264.806 248.242C264.53 248.717 264.241 249.167 264.003 249.616L263.316 250.9C262.86 251.722 262.539 252.505 262.218 253.179C261.897 253.853 261.647 254.463 261.461 254.938L260.999 256.055C260.951 256.19 260.889 256.32 260.812 256.44C260.832 256.3 260.868 256.161 260.922 256.03C261.031 255.728 261.159 255.349 261.32 254.88C261.523 254.274 261.757 253.679 262.019 253.096C262.321 252.409 262.629 251.613 263.072 250.778L263.714 249.456C263.945 249 264.228 248.544 264.504 248.056C265.03 247.08 265.698 246.13 266.379 245.058C269.437 240.573 273.236 236.641 277.614 233.431C278.641 232.712 279.597 232.012 280.554 231.447C281.029 231.159 281.472 230.863 281.921 230.613L283.205 229.9C284.021 229.432 284.81 229.091 285.485 228.77C286.057 228.485 286.644 228.23 287.244 228.006L288.38 227.576C288.525 227.514 288.679 227.473 288.836 227.454Z" fill="#E0E0E0"/>
<path d="M272.08 238.676C272.237 238.136 272.557 237.659 272.998 237.309C274.029 236.408 275.346 235.903 276.715 235.884C278.054 235.875 279.381 236.134 280.618 236.648C281.142 236.813 281.639 237.053 282.095 237.36C281.568 237.256 281.052 237.101 280.554 236.898C279.328 236.479 278.042 236.262 276.747 236.256C275.463 236.283 274.222 236.719 273.203 237.501C272.801 237.866 272.426 238.259 272.08 238.676Z" fill="#E0E0E0"/>
<path d="M269.576 241.264C269.467 241.206 270.41 239.819 270.629 237.835C270.847 235.852 270.275 234.285 270.391 234.253C270.507 234.221 270.648 234.6 270.828 235.255C271.285 236.98 271.072 238.816 270.23 240.39C269.903 240.981 269.64 241.289 269.576 241.264Z" fill="#E0E0E0"/>
<path d="M242.291 276.06C242.869 286.332 245.957 296.726 250.708 307.261H271.354C275.887 296.797 278.757 286.396 279.27 276.06H242.291Z" fill="#E0E0E0"/>
<path d="M275.925 292.604C275.925 292.713 269.126 292.803 260.736 292.803C252.345 292.803 245.552 292.713 245.552 292.604C245.552 292.495 252.351 292.412 260.736 292.412C269.12 292.412 275.925 292.502 275.925 292.604Z" fill="#FAFAFA"/>
<path d="M275.463 296.315C275.463 296.424 269.088 296.514 261.23 296.514C253.372 296.514 246.99 296.424 246.99 296.315C246.99 296.206 253.365 296.122 261.23 296.122C269.094 296.122 275.463 296.212 275.463 296.315Z" fill="#FAFAFA"/>
<path d="M251.022 282.756C251.279 285.922 251.279 289.104 251.022 292.271C250.913 292.271 250.83 290.139 250.83 287.513C250.83 284.887 250.932 282.756 251.022 282.756Z" fill="#FAFAFA"/>
<path d="M262.103 282.756C262.212 282.756 262.295 284.958 262.295 287.68C262.295 290.402 262.212 292.604 262.103 292.604C261.994 292.604 261.91 290.402 261.91 287.68C261.91 284.958 261.994 282.756 262.103 282.756Z" fill="#FAFAFA"/>
<path d="M272.49 282.673C272.6 282.673 272.683 284.92 272.683 287.693C272.683 290.466 272.6 292.72 272.49 292.72C272.381 292.72 272.298 290.473 272.298 287.693C272.298 284.913 272.381 282.673 272.49 282.673Z" fill="#FAFAFA"/>
<path d="M278.628 282.756C278.628 282.865 270.654 282.949 260.819 282.949C250.983 282.949 243.01 282.865 243.01 282.756C243.01 282.647 250.977 282.563 260.819 282.563C270.661 282.563 278.628 282.647 278.628 282.756Z" fill="#FAFAFA"/>
<path d="M267.534 180.55H33.5381V187.759H267.534V180.55Z" fill="#EBEBEB"/>
<path d="M53.7801 186.873L36.2471 307.229H40.0092L61.6318 187.759L53.7801 186.873Z" fill="#EBEBEB"/>
<path d="M251.009 186.109L269.505 307.229H265.749L243.151 187.214L251.009 186.109Z" fill="#EBEBEB"/>
<path d="M42.4231 151.512V167.742H39.7139V169.488H42.4231V180.351H93.0897V170.464H89.3405V168.307H93.0897V165.097H94.7589V163.633H92.7687V151.512H42.4231Z" fill="#F5F5F5"/>
<path d="M79.6274 151.538V180.164H93.0773V170.284H89.328V168.313L93.0773 168.377V165.148H94.7786L94.7465 163.479L92.7692 163.434V151.493L79.6274 151.538Z" fill="#E0E0E0"/>
<path d="M80.5839 169.25C80.5839 169.353 71.4226 169.43 60.1169 169.43C48.8113 169.43 39.6436 169.353 39.6436 169.25C39.6436 169.148 48.8113 169.071 60.1169 169.071C71.4226 169.071 80.5839 169.154 80.5839 169.25Z" fill="#E0E0E0"/>
<path d="M80.5839 167.601C80.5839 167.703 71.4226 167.78 60.1169 167.78C48.8113 167.78 39.6436 167.703 39.6436 167.601C39.6436 167.498 48.8113 167.421 60.1169 167.421C71.4226 167.421 80.5839 167.504 80.5839 167.601Z" fill="#E0E0E0"/>
<path d="M83.2162 163.164C83.2162 163.267 74.0485 163.344 62.7493 163.344C51.4501 163.344 42.2759 163.267 42.2759 163.164C42.2759 163.062 51.4372 162.985 62.7493 162.985C74.0613 162.985 83.2162 163.068 83.2162 163.164Z" fill="#E0E0E0"/>
<path d="M83.4599 175.266C83.4599 175.369 74.2985 175.452 62.9929 175.452C51.6873 175.452 42.5195 175.369 42.5195 175.266C42.5195 175.163 51.6809 175.086 62.9929 175.086C74.3049 175.086 83.4599 175.157 83.4599 175.266Z" fill="#E0E0E0"/>
<path d="M96.8329 140.624H87.999V151.127H96.8329V140.624Z" fill="#F5F5F5"/>
<path d="M88.3004 139.937H48.3809V151.782H88.3004V139.937Z" fill="#E0E0E0"/>
<path d="M97.0961 140.938H87.2285V139.956H97.0961C97.2289 139.956 97.3563 140.009 97.4502 140.103C97.5441 140.197 97.5968 140.324 97.5968 140.457C97.5919 140.586 97.5369 140.709 97.4435 140.798C97.3501 140.888 97.2256 140.938 97.0961 140.938Z" fill="#E0E0E0"/>
<path d="M97.0961 151.788H87.2285V150.787H97.0961C97.2289 150.787 97.3563 150.839 97.4502 150.933C97.5441 151.027 97.5968 151.155 97.5968 151.287C97.5968 151.42 97.5441 151.547 97.4502 151.641C97.3563 151.735 97.2289 151.788 97.0961 151.788Z" fill="#E0E0E0"/>
<path d="M85.1679 139.937H80.4492V151.782H85.1679V139.937Z" fill="#EBEBEB"/>
<path d="M56.9003 140.072H52.1816V151.916H56.9003V140.072Z" fill="#EBEBEB"/>
<path d="M96.8331 142.363C96.8331 142.363 94.9071 142.415 92.5638 142.415C90.2205 142.415 88.2881 142.415 88.2881 142.363C88.2881 142.312 90.2141 142.306 92.5638 142.306C94.9135 142.306 96.8331 142.331 96.8331 142.363Z" fill="#E0E0E0"/>
<path d="M96.8331 143.936C96.8331 143.936 94.9071 143.988 92.5638 143.988C90.2205 143.988 88.2881 143.988 88.2881 143.936C88.2881 143.885 90.2141 143.885 92.5638 143.885C94.9135 143.885 96.8331 143.904 96.8331 143.936Z" fill="#E0E0E0"/>
<path d="M96.8331 145.875C96.8331 145.875 94.9071 145.927 92.5638 145.927C90.2205 145.927 88.2881 145.927 88.2881 145.875C88.2881 145.824 90.2141 145.824 92.5638 145.824C94.9135 145.824 96.8331 145.843 96.8331 145.875Z" fill="#E0E0E0"/>
<path d="M96.8331 147.814C96.8331 147.814 94.9071 147.865 92.5638 147.865C90.2205 147.865 88.2881 147.865 88.2881 147.814C88.2881 147.763 90.2141 147.763 92.5638 147.763C94.9135 147.763 96.8331 147.782 96.8331 147.814Z" fill="#E0E0E0"/>
<path d="M96.8331 149.753C96.8331 149.753 94.9071 149.804 92.5638 149.804C90.2205 149.804 88.2881 149.804 88.2881 149.753C88.2881 149.702 90.2141 149.702 92.5638 149.702C94.9135 149.702 96.8331 149.721 96.8331 149.753Z" fill="#E0E0E0"/>
<path d="M77.9064 144.81H59.9497V146.941H77.9064V144.81Z" fill="#EBEBEB"/>
<path d="M79.9161 128.439L84.8851 140.11H81.688L79.4795 133.876L79.9161 128.439Z" fill="#E0E0E0"/>
<path d="M64.6623 117.884L62.7427 140.11H78.9789L80.7636 117.884H64.6623Z" fill="#EBEBEB"/>
<path d="M66.248 119.643L64.5659 138.261L76.7575 138.422L78.401 119.534L66.248 119.643Z" fill="#FAFAFA"/>
<path d="M68.835 122.224L67.8784 135.032H74.3819L75.5246 122.224H68.835Z" fill="#E0E0E0"/>
<path d="M255.414 35.2689L249.412 35.3014L249.573 65.1732L255.576 65.1408L255.414 35.2689Z" fill="#E0E0E0"/>
<path d="M212.947 35.3448L197.398 35.4289L197.488 51.9217L213.037 51.8375L212.947 35.3448Z" fill="#EBEBEB"/>
<path d="M228.419 35.2675L212.87 35.3516L212.959 51.8444L228.508 51.7602L228.419 35.2675Z" fill="#F5F5F5"/>
<path d="M197.421 39.9966C207.751 40.0865 218.113 39.9966 228.443 39.8554C228.481 39.8478 228.515 39.8274 228.539 39.7975C228.564 39.7677 228.577 39.7303 228.577 39.6916C228.577 39.653 228.564 39.6156 228.539 39.5858C228.515 39.5559 228.481 39.5355 228.443 39.5279C218.115 39.468 207.777 39.5301 197.428 39.7141C197.39 39.7141 197.354 39.729 197.328 39.7555C197.302 39.782 197.287 39.8179 197.287 39.8554C197.287 39.8928 197.302 39.9287 197.328 39.9552C197.354 39.9817 197.39 39.9966 197.428 39.9966H197.421Z" fill="#E0E0E0"/>
<path d="M215.956 51.5709L187.708 51.7238L187.781 65.1606L216.029 65.0078L215.956 51.5709Z" fill="#EBEBEB"/>
<path d="M244.068 51.4124L215.82 51.5652L215.893 65.0021L244.141 64.8493L244.068 51.4124Z" fill="#F5F5F5"/>
<path d="M187.721 55.4688C206.486 55.6807 225.316 55.4688 244.082 55.1927C244.126 55.1927 244.169 55.1752 244.2 55.1439C244.231 55.1125 244.249 55.0701 244.249 55.0258C244.249 54.9816 244.231 54.9391 244.2 54.9078C244.169 54.8765 244.126 54.8589 244.082 54.8589C225.316 54.7626 206.48 54.769 187.721 55.1863C187.683 55.1863 187.647 55.2012 187.621 55.2277C187.594 55.2542 187.58 55.2901 187.58 55.3276C187.58 55.365 187.594 55.4009 187.621 55.4274C187.647 55.4539 187.683 55.4688 187.721 55.4688Z" fill="#E0E0E0"/>
<path d="M286.595 65.1694H177.16V69.9844H286.595V65.1694Z" fill="#E0E0E0"/>
<path d="M199.521 67.487H195.078V83.9158H199.521V67.487Z" fill="#E0E0E0"/>
<path d="M265.84 67.487H261.397V83.9158H265.84V67.487Z" fill="#E0E0E0"/>
<path d="M261.267 24.1306L255.264 24.1631L255.486 65.2505L261.489 65.218L261.267 24.1306Z" fill="#EBEBEB"/>
<path d="M270.649 31.7839L261.321 31.8344L261.501 65.128L270.83 65.0775L270.649 31.7839Z" fill="#F5F5F5"/>
<path d="M270.59 38.2054C269.04 38.3662 267.48 38.4198 265.923 38.3659C264.367 38.42 262.81 38.3663 261.262 38.2054C264.367 37.9914 267.484 37.9914 270.59 38.2054Z" fill="#E0E0E0"/>
<path d="M270.59 36.8059C269.04 36.9667 267.48 37.0203 265.923 36.9664C264.367 37.0204 262.81 36.9668 261.262 36.8059C264.367 36.5919 267.484 36.5919 270.59 36.8059Z" fill="#E0E0E0"/>
<path d="M270.59 60.0784C267.484 60.2923 264.367 60.2923 261.262 60.0784C264.367 59.8644 267.484 59.8644 270.59 60.0784Z" fill="#E0E0E0"/>
<path d="M270.59 58.6788C267.484 58.8928 264.367 58.8928 261.262 58.6788C264.367 58.4648 267.484 58.4648 270.59 58.6788Z" fill="#E0E0E0"/>
<path d="M266.077 55.6293C265.987 55.6293 265.91 52.2716 265.91 48.1243C265.91 43.977 265.987 40.6257 266.077 40.6257C266.167 40.6257 266.238 43.9834 266.238 48.1243C266.238 52.2652 266.161 55.6293 266.077 55.6293Z" fill="#E0E0E0"/>
<path d="M280.843 39.9709H270.687V65.1052H280.843V39.9709Z" fill="#EBEBEB"/>
<path d="M259.907 31.1563C259.908 31.4981 259.808 31.8326 259.619 32.1175C259.43 32.4023 259.161 32.6247 258.845 32.7564C258.53 32.888 258.183 32.9232 257.847 32.8573C257.512 32.7913 257.203 32.6274 256.961 32.3861C256.719 32.1448 256.554 31.8371 256.487 31.502C256.42 31.1668 256.453 30.8192 256.584 30.5033C256.714 30.1873 256.936 29.9172 257.22 29.7272C257.504 29.5372 257.838 29.4357 258.18 29.4357C258.637 29.4357 259.075 29.6168 259.399 29.9392C259.723 30.2617 259.905 30.6993 259.907 31.1563Z" fill="#E0E0E0"/>
<path d="M258.713 35.9071H257.647V60.348H258.713V35.9071Z" fill="#E0E0E0"/>
<path d="M295.224 307.229C295.224 307.319 234.876 307.396 160.506 307.396C86.1372 307.396 25.7764 307.319 25.7764 307.229C25.7764 307.139 86.0858 307.062 160.506 307.062C234.927 307.062 295.224 307.133 295.224 307.229Z" fill="#263238"/>
<path d="M159.402 225.901L185.872 307.229H181.051L150.042 225.901H159.402Z" fill="#E0E0E0"/>
<path d="M159.402 225.901H158.76H156.963L150.016 225.939L150.081 225.843C155.396 239.691 166.856 269.64 180.133 304.308C180.492 305.258 180.852 306.234 181.211 307.139L181.057 307.036H185.872L185.712 307.255C178.322 284.457 171.729 264.138 166.984 249.513C164.622 242.188 162.722 236.295 161.412 232.218C160.77 230.183 160.256 228.603 159.91 227.525L159.524 226.299C159.441 226.023 159.402 225.875 159.402 225.875C159.402 225.875 159.454 226.003 159.544 226.273L159.948 227.473C160.301 228.546 160.821 230.106 161.489 232.122C162.824 236.185 164.75 242.06 167.151 249.353C171.934 263.997 178.579 284.335 186.026 307.133L186.097 307.351H180.961L180.916 307.242C180.563 306.305 180.197 305.361 179.837 304.411C166.644 269.691 155.249 239.71 149.991 225.881V225.785H150.093L157.078 225.823H158.857C159.216 225.888 159.402 225.901 159.402 225.901Z" fill="#263238"/>
<path d="M107.31 225.901L80.8408 307.229H85.6558L116.671 225.901H107.31Z" fill="#E0E0E0"/>
<path d="M107.31 225.901C107.31 225.901 107.509 225.901 107.907 225.901H109.686L116.671 225.862H116.773L116.735 225.958C111.483 239.787 100.088 269.768 86.8948 304.488L85.8098 307.319L85.7713 307.428H80.6353L80.7059 307.21L99.5871 249.43L105.25 232.199C105.892 230.183 106.437 228.623 106.79 227.55L107.195 226.35C107.285 226.08 107.336 225.952 107.336 225.952C107.336 225.952 107.298 226.1 107.214 226.376L106.829 227.602C106.482 228.68 105.975 230.26 105.327 232.295C104.01 236.372 102.117 242.265 99.754 249.59C95.0032 264.215 88.4163 284.534 81.0269 307.332L80.8664 307.114H85.6814L85.5273 307.216L86.6059 304.385C99.8824 269.717 111.342 239.742 116.626 225.926L116.696 226.023L109.744 225.984H107.952L107.31 225.901Z" fill="#263238"/>
<path d="M150.722 227.685C150.577 227.809 150.423 227.92 150.26 228.019L148.899 228.918L143.885 232.205C139.654 234.991 133.819 238.856 127.405 243.157L110.983 254.232L106.001 257.577L104.646 258.437C104.493 258.551 104.33 258.65 104.158 258.732C104.3 258.606 104.45 258.49 104.608 258.386L105.93 257.442L110.854 254.014C115.021 251.138 120.805 247.189 127.225 242.888C133.645 238.586 139.494 234.747 143.763 232.012C145.895 230.651 147.615 229.554 148.835 228.802L150.228 227.955C150.386 227.853 150.551 227.763 150.722 227.685Z" fill="#263238"/>
<path d="M99.9402 139.198C99.9402 139.198 91.6455 140.052 90.4386 145.047C89.2316 150.042 85.3026 211.815 90.4386 220.566C95.5746 229.316 161.701 228.096 166.291 226.896C170.881 225.695 173.045 222.716 172.576 219.076C172.107 215.436 127.078 210.923 127.078 210.923L129.825 146.453C129.825 146.453 113.634 138.3 99.9402 139.198Z" fill="#263238"/>
<path d="M172.615 220.636H172.416H171.825L169.559 220.694C167.588 220.745 164.737 220.771 161.213 220.765C154.151 220.765 144.424 220.521 133.697 219.75C128.336 219.359 123.232 218.864 118.603 218.338C113.974 217.811 109.814 217.234 106.335 216.688C104.588 216.431 103.022 216.155 101.642 215.924C100.261 215.693 99.0735 215.481 98.1041 215.282L95.8764 214.852L95.2986 214.736L95.106 214.685C95.172 214.676 95.2389 214.676 95.305 214.685L95.8892 214.768L98.1298 215.134C99.0992 215.301 100.287 215.5 101.674 215.706C103.06 215.911 104.627 216.181 106.367 216.418C109.853 216.938 114.013 217.471 118.635 217.998C123.258 218.524 128.362 218.993 133.722 219.384C144.444 220.155 154.17 220.418 161.213 220.495C164.731 220.533 167.581 220.54 169.559 220.533H172.422L172.615 220.636Z" fill="#455A64"/>
<path d="M162.908 259.644C162.856 259.721 152.379 252.357 139.513 243.209C126.647 234.06 116.254 226.568 116.305 226.517C116.356 226.465 126.834 233.804 139.706 242.958C152.578 252.113 162.959 259.567 162.908 259.644Z" fill="#263238"/>
<path d="M105.802 83.736L100.505 74.4078C103.777 69.0965 104.943 62.7536 103.775 56.626C102.607 50.4985 99.1894 45.0293 94.1938 41.2937C89.1981 37.5581 82.9859 35.8262 76.7781 36.4384C70.5703 37.0506 64.816 39.9626 60.6463 44.6021C56.4766 49.2416 54.193 55.2729 54.2445 61.5106C54.296 67.7483 56.6788 73.7411 60.9245 78.3111C65.1702 82.8812 70.9718 85.6978 77.1888 86.2075C83.4059 86.7171 89.5887 84.8829 94.522 81.0653L105.802 83.736Z" fill="white"/>
<path d="M105.802 83.7361L94.4897 81.1681H94.3356L94.4319 81.0397L94.5732 81.1809C91.0957 83.8979 86.9596 85.6436 82.587 86.2399C81.2775 86.426 79.9541 86.4947 78.6323 86.4453C77.9518 86.4068 77.2584 86.3875 76.5587 86.3297L74.4465 86.0152C68.1524 84.7802 62.565 81.1945 58.8202 75.9871C56.7406 73.1149 55.2981 69.8317 54.5894 66.3571C53.8702 62.6718 53.971 58.8733 54.8847 55.2313C55.8304 51.4301 57.6681 47.9089 60.2454 44.9593C62.8621 41.9316 66.1636 39.5722 69.8754 38.077C73.4358 36.6711 77.2666 36.0831 81.0848 36.3565C84.6905 36.6052 88.1974 37.6441 91.3568 39.3995C97.0348 42.5404 101.291 47.7409 103.247 53.928C104.017 56.569 104.383 59.3115 104.332 62.0621C104.195 66.4497 102.904 70.7236 100.589 74.4527V74.35L105.802 83.7296C105.455 83.139 103.824 80.3206 100.422 74.4463V74.4014V74.35C102.688 70.6384 103.938 66.3965 104.049 62.0493C104.091 59.3337 103.719 56.6276 102.945 54.0243C101.012 47.908 96.8103 42.7642 91.2027 39.6499C88.0854 37.9252 84.6266 36.9082 81.0719 36.671C77.3123 36.4041 73.5407 36.9856 70.0359 38.3723C66.3831 39.8465 63.1346 42.1707 60.56 45.1519C58.0211 48.0567 56.2119 51.5254 55.2828 55.2698C54.3767 58.8538 54.2737 62.5938 54.981 66.2223C55.6674 69.6597 57.0815 72.9104 59.1284 75.756C62.8143 80.9057 68.3241 84.4573 74.5364 85.6877L76.6229 86.0087C77.3162 86.0665 77.9967 86.0858 78.6708 86.1307C79.977 86.1832 81.2853 86.1209 82.5806 85.9445C86.9129 85.3728 91.0182 83.67 94.4833 81.0076L95.1253 80.5261L94.6438 81.1681L94.586 81.014L105.802 83.7361Z" fill="#263238"/>
<path d="M74.9665 57.9919H76.5458L79.987 53.1897V50.0375C79.987 50.0375 82.4266 49.8898 82.1441 54.0115C81.8616 58.1331 82.1441 57.0867 82.1441 57.0867C82.1441 57.0867 87.325 57.0867 87.7552 57.5617C88.0697 57.8827 88.211 63.0316 88.2623 65.8178C88.2982 66.4912 88.107 67.1571 87.7194 67.7089C87.3317 68.2607 86.7701 68.6663 86.1245 68.8609C85.9426 68.9117 85.7547 68.9376 85.5659 68.938C84.2819 68.938 77.6758 67.8851 77.6758 67.8851H74.9473L74.9665 57.9919Z" fill="#452A98"/>
<path d="M70.4468 57.1252L71.4226 67.9172H74.1254V57.3434L70.4468 57.1252Z" fill="#452A98"/>
<path d="M205.677 193.884C205.677 193.884 220.533 193.884 221.143 207.726C221.753 221.567 177.898 294.588 177.898 294.588L164.012 287.995L193.788 217.137L129.177 210.781L131.006 194.526L205.677 193.884Z" fill="#FFBE9D"/>
<path d="M180.832 290.377L180.402 291.359C180.402 291.359 194.012 305.354 192.793 308.577L159.98 293.811L165.341 283.09C169.199 287.552 174.194 290.107 180.832 290.377Z" fill="#455A64"/>
<g opacity="0.6">
<path opacity="0.6" d="M167.093 288.085C166.734 288.039 166.371 288.128 166.073 288.332C165.775 288.537 165.562 288.844 165.475 289.195C165.416 289.553 165.496 289.919 165.699 290.219C165.902 290.519 166.213 290.729 166.567 290.807C166.947 290.853 167.331 290.758 167.645 290.539C167.959 290.319 168.181 289.992 168.268 289.619C168.293 289.241 168.17 288.867 167.924 288.578C167.678 288.289 167.329 288.108 166.952 288.072" fill="white"/>
</g>
<g opacity="0.6">
<path opacity="0.6" d="M159.98 293.818L161.264 291.25L192.24 306.343C192.24 306.343 193.415 307.627 192.786 308.59L159.98 293.818Z" fill="white"/>
</g>
<path d="M180.473 291.5C180.396 291.654 179.561 291.372 178.547 291.532C177.532 291.693 176.8 292.174 176.678 292.046C176.556 291.917 177.218 291.096 178.457 290.922C179.696 290.749 180.575 291.365 180.473 291.5Z" fill="#263238"/>
<path d="M183.278 294.473C183.246 294.64 182.424 294.601 181.577 295.038C180.729 295.474 180.248 296.116 180.094 296.039C179.94 295.962 180.242 295.005 181.307 294.485C182.373 293.965 183.342 294.319 183.278 294.473Z" fill="#263238"/>
<path d="M183.38 299.467C183.22 299.467 183.38 298.536 184.157 297.843C184.934 297.15 185.871 297.143 185.878 297.304C185.884 297.464 185.236 297.728 184.594 298.305C183.952 298.883 183.547 299.525 183.38 299.467Z" fill="#263238"/>
<path d="M177.571 141.696L180.209 149.766L165.822 150.889L164.146 146.569L177.571 141.696Z" fill="#FFBE9D"/>
<path d="M218.421 152.282C218.697 152.835 219.416 152.924 219.968 153.213C220.483 153.508 220.904 153.941 221.184 154.463C221.465 154.985 221.593 155.575 221.554 156.167C221.462 157.349 221.071 158.489 220.418 159.479C220.217 159.882 219.925 160.231 219.564 160.5C219.381 160.627 219.164 160.695 218.941 160.695C218.719 160.695 218.501 160.627 218.318 160.5C217.895 160.147 217.946 159.492 218.036 158.946C218.376 156.898 217.933 154.311 218.415 152.289" fill="#FFBE9D"/>
<path d="M122.737 51.0968C122.616 50.1965 122.835 49.2832 123.353 48.5369C123.872 47.7906 124.65 47.2655 125.537 47.065L141.42 36.9599C147.474 35.5989 155.101 45.7104 156.186 51.8094C157.282 58.5129 157.712 65.3084 157.47 72.0966C157.033 82.5355 150.189 83.6526 150.189 83.6526L155.325 118.366L130.576 103.105L122.737 51.0968Z" fill="#FFBE9D"/>
<path d="M152.886 60.47C152.928 60.8114 152.836 61.1558 152.628 61.4303C152.421 61.7048 152.115 61.8877 151.775 61.9402C151.44 62.0021 151.095 61.9287 150.815 61.7361C150.534 61.5435 150.342 61.2474 150.279 60.913C150.237 60.5716 150.329 60.2271 150.536 59.9526C150.744 59.6781 151.05 59.4953 151.39 59.4428C151.724 59.3809 152.07 59.4543 152.35 59.6469C152.631 59.8395 152.823 60.1355 152.886 60.47Z" fill="#263238"/>
<path d="M154.927 56.7207C154.799 56.862 153.746 56.8427 152.417 57.3627C151.088 57.8827 150.209 58.5761 150.042 58.5376C149.875 58.4991 150.042 58.3129 150.446 57.9919C151.004 57.5363 151.636 57.1801 152.314 56.939C152.962 56.6898 153.649 56.5614 154.343 56.5602C154.805 56.5474 154.992 56.6565 154.927 56.7207Z" fill="#263238"/>
<path d="M139.737 61.1056C139.778 61.4476 139.684 61.7921 139.476 62.0663C139.268 62.3406 138.961 62.5232 138.62 62.5758C138.287 62.6358 137.943 62.5615 137.664 62.3691C137.385 62.1766 137.193 61.8817 137.131 61.5486C137.087 61.2069 137.178 60.8616 137.386 60.5867C137.594 60.3118 137.901 60.1293 138.242 60.0784C138.576 60.0165 138.922 60.0899 139.202 60.2825C139.483 60.4751 139.675 60.7711 139.737 61.1056Z" fill="#263238"/>
<path d="M141.118 59.4107C140.925 59.4877 139.937 58.8971 138.402 58.6724C136.868 58.4477 135.667 58.6724 135.52 58.5697C135.372 58.4669 135.667 58.3578 136.162 58.2358C136.932 58.0829 137.723 58.0677 138.498 58.1909C139.25 58.2938 139.975 58.5377 140.636 58.9099C141.092 59.1731 141.24 59.3786 141.118 59.4107Z" fill="#263238"/>
<path d="M147.384 68.1419C148.1 67.8176 148.855 67.5867 149.631 67.455C149.984 67.3779 150.318 67.2688 150.35 67.012C150.338 66.6358 150.21 66.2723 149.984 65.9719C149.556 65.1159 149.093 64.2407 148.597 63.3462C146.671 59.6033 145.207 56.5088 145.387 56.4318C145.567 56.3548 147.236 59.3272 149.175 63.0701L150.517 65.7151C150.795 66.1255 150.921 66.6211 150.87 67.1147C150.832 67.248 150.764 67.3709 150.672 67.4743C150.579 67.5777 150.465 67.6589 150.337 67.7118C150.143 67.7878 149.94 67.8395 149.733 67.8658C148.965 68.0555 148.175 68.1483 147.384 68.1419Z" fill="#263238"/>
<path d="M150.183 83.6783C145.387 84.3873 140.489 83.7194 136.059 81.7523C136.059 81.7523 140.277 88.9684 150.42 86.8112L150.183 83.6783Z" fill="#EB996E"/>
<path d="M147.544 71.6023C147.199 71.1525 146.757 70.7859 146.252 70.5293C145.746 70.2726 145.19 70.1325 144.623 70.1192C144.295 70.1261 143.977 70.2322 143.712 70.4237C143.446 70.6151 143.244 70.8829 143.134 71.1914C143.023 71.5899 143.01 72.0094 143.096 72.414C143.182 72.8187 143.364 73.1965 143.628 73.5154C143.887 73.8529 144.238 74.1074 144.64 74.2477C145.041 74.388 145.475 74.4079 145.888 74.3051C146.557 74.0288 147.128 73.5566 147.525 72.9505C147.669 72.7961 147.772 72.6087 147.827 72.4048C147.85 72.2761 147.845 72.1439 147.812 72.0174C147.778 71.8909 147.718 71.7733 147.634 71.6729" fill="#EB996E"/>
<path d="M143.333 69.6056C143.564 69.5607 143.744 71.0951 145.182 72.0324C146.62 72.9697 148.238 72.6102 148.276 72.8221C148.276 72.9184 147.949 73.1623 147.255 73.265C146.359 73.3819 145.45 73.1796 144.687 72.6937C143.955 72.2232 143.435 71.4865 143.236 70.6393C143.102 69.978 143.23 69.6056 143.333 69.6056Z" fill="#263238"/>
<path d="M141.567 53.0998C141.432 53.485 140.007 53.3245 138.357 53.5556C136.707 53.7868 135.346 54.2554 135.115 53.9152C135.012 53.7482 135.244 53.3823 135.757 52.9971C136.475 52.523 137.292 52.2188 138.145 52.1075C138.998 51.9963 139.866 52.0809 140.681 52.3551C141.31 52.644 141.625 52.9136 141.567 53.0998Z" fill="#263238"/>
<path d="M155.004 53.5556C154.728 53.9087 153.483 53.7161 152.025 53.8638C150.568 54.0115 149.361 54.3838 149.04 54.0757C148.892 53.928 149.04 53.5813 149.56 53.2218C150.267 52.7688 151.073 52.4936 151.909 52.4199C152.745 52.3461 153.587 52.4758 154.362 52.7981C154.914 53.0741 155.12 53.3823 155.004 53.5556Z" fill="#263238"/>
<path d="M115.772 77.7783C116.029 73.1238 116.773 58.223 119.778 50.0953C122.782 41.9675 127.013 38.3274 131.366 36.6133C133.01 35.9108 134.807 35.6446 136.584 35.8403C138.361 36.036 140.058 36.687 141.51 37.7303C143.744 39.3097 145.041 44.5099 145.041 44.5099C145.041 44.5099 134.48 48.1564 131.559 54.7819C128.175 62.3575 127.572 66.0425 127.572 66.0425L126.66 70.0807C126.66 70.0807 128.644 87.633 129.536 91.2667L115.22 105.108C115.688 100.537 115.515 82.4264 115.772 77.7783Z" fill="#263238"/>
<path d="M145.355 44.5356C145.355 44.5356 151.473 43.1553 154.561 49.8898C155.961 52.9393 157.347 62.1713 157.347 62.1713C157.347 62.1713 157.867 54.6278 157.058 50.5254C156.25 46.423 153.585 41.4154 150.08 38.8795C146.575 36.3436 143.917 35.3871 138.434 36.3501C140.085 36.7629 141.584 37.6381 142.755 38.8731C143.583 39.8425 143.994 40.7028 145.355 44.5356Z" fill="#263238"/>
<path d="M127.687 66.5433C127.315 64.2835 124.669 63.0508 122.833 64.4183C121.825 65.163 121.145 66.5112 121.517 68.9123C122.519 75.3323 128.727 72.9826 128.708 72.8028C128.688 72.6231 128.123 69.1819 127.687 66.5433Z" fill="#FFBE9D"/>
<path d="M126.377 70.6778C126.377 70.6778 126.281 70.7741 126.108 70.8896C125.858 71.0416 125.56 71.0943 125.273 71.0373C124.561 70.8961 123.829 69.9074 123.617 68.7646C123.514 68.2189 123.536 67.6571 123.681 67.1211C123.707 66.9115 123.785 66.7115 123.907 66.5391C124.029 66.3666 124.192 66.2269 124.381 66.1324C124.504 66.0806 124.642 66.0727 124.77 66.1101C124.899 66.1475 125.011 66.2279 125.087 66.3379C125.203 66.5048 125.177 66.6332 125.215 66.6396C125.254 66.646 125.337 66.5112 125.215 66.2544C125.155 66.1017 125.044 65.9745 124.901 65.8949C124.703 65.7903 124.473 65.7673 124.259 65.8307C124.004 65.9242 123.777 66.0812 123.599 66.2867C123.422 66.4923 123.3 66.7397 123.244 67.0055C123.06 67.5999 123.025 68.2305 123.142 68.8417C123.379 70.1257 124.227 71.2299 125.196 71.3519C125.375 71.3746 125.556 71.357 125.728 71.3003C125.899 71.2436 126.055 71.1494 126.185 71.0245C126.39 70.8319 126.403 70.6842 126.377 70.6778Z" fill="#EB996E"/>
<path d="M133.889 35.9071C133.889 35.9584 134.775 35.83 136.187 35.8557C137.013 35.8719 137.832 36.0171 138.614 36.2858C139.563 36.6369 140.435 37.1689 141.182 37.8523C142.564 39.0872 143.64 40.6254 144.328 42.3463C144.854 43.6303 144.97 44.542 145.047 44.5291C145.037 44.3233 145.007 44.119 144.957 43.9192C144.445 41.514 143.176 39.336 141.336 37.7047C140.566 36.9913 139.66 36.441 138.672 36.0868C137.869 35.8183 137.027 35.6859 136.181 35.6952C135.614 35.695 135.048 35.7314 134.486 35.8043C134.284 35.822 134.085 35.8564 133.889 35.9071Z" fill="#455A64"/>
<path d="M122.275 71.8655C122.278 71.8291 122.278 71.7927 122.275 71.7563L122.185 71.4674C122.14 71.3326 122.096 71.1721 122.038 70.9924L121.864 70.3504C121.514 68.9469 121.367 67.5005 121.428 66.0554C121.509 63.9116 122.036 61.8084 122.975 59.8793C124.175 57.5438 125.887 55.5094 127.983 53.928C129.058 53.0978 130.184 52.3346 131.353 51.6425C132.483 50.962 133.619 50.397 134.672 49.7678C136.514 48.6445 138.265 47.3803 139.911 45.9865C141.317 44.7988 142.402 43.778 143.121 43.0589C143.487 42.6994 143.763 42.4169 143.949 42.2179L144.161 41.9932C144.206 41.9419 144.232 41.9162 144.225 41.9098L144.148 41.974L143.917 42.1858L143.07 43.014C142.319 43.7138 141.221 44.7153 139.802 45.8773C138.15 47.2481 136.399 48.4948 134.563 49.6073C133.523 50.2493 132.374 50.7822 131.238 51.4691C130.057 52.1609 128.923 52.9287 127.841 53.7675C125.71 55.3641 123.971 57.4259 122.757 59.7959C121.815 61.7518 121.299 63.8852 121.242 66.0554C121.198 67.5127 121.368 68.9686 121.749 70.376L121.941 71.018C122.012 71.1978 122.07 71.3519 122.115 71.4867L122.23 71.7756C122.256 71.8334 122.269 71.8655 122.275 71.8655Z" fill="#455A64"/>
<path d="M120.51 69.6056C120.51 69.6056 120.51 69.5671 120.51 69.5029L120.471 69.1948C120.471 68.9251 120.368 68.5528 120.317 68.0199C120.166 66.5739 120.142 65.1173 120.246 63.6671C120.403 61.5194 120.835 59.4007 121.53 57.3627C122.399 54.8736 123.668 52.5426 125.286 50.4612C126.953 48.4042 128.897 46.5892 131.064 45.0684C132.99 43.6303 134.916 42.5004 136.451 41.486C137.985 40.4717 139.263 39.6949 140.116 39.1042C140.547 38.8217 140.868 38.5842 141.086 38.4237L141.336 38.2439L141.42 38.1733C141.42 38.1733 141.381 38.1733 141.323 38.2247L141.06 38.3852L140.065 39.0272C139.205 39.5857 137.934 40.3754 136.361 41.3384C134.788 42.3014 132.913 43.457 130.936 44.8951C128.764 46.4176 126.819 48.2397 125.158 50.3071C123.507 52.4084 122.217 54.7687 121.338 57.2921C120.634 59.3499 120.202 61.4909 120.054 63.6607C119.965 65.1173 120.014 66.5791 120.202 68.0263C120.266 68.5399 120.356 68.9315 120.401 69.2012C120.401 69.3232 120.445 69.4259 120.465 69.5029C120.484 69.58 120.503 69.6056 120.51 69.6056Z" fill="#455A64"/>
<path d="M154.786 94.3291C154.786 94.3291 163.062 97.6931 164.647 102.001C166.233 106.309 178.264 141.882 178.264 141.882L164.301 147.236L157.932 117.961L154.786 94.3291Z" fill="#FFCB22"/>
<path d="M112.003 195.348C112.003 195.348 197.389 191.425 202.75 192.838C208.111 194.25 211.314 196.953 212.38 203.379C213.446 209.806 229.907 294.948 229.907 294.948L214.935 299.352C214.935 299.352 193.929 251.394 193.037 243.369C192.144 235.344 189.185 218.896 189.185 218.896C189.185 218.896 156.725 219.429 132.823 218.896C108.922 218.363 112.132 196.24 112.132 196.24L112.003 195.348Z" fill="#FFBE9D"/>
<path d="M214.749 299.737L214.64 299.48C213.78 297.516 193.608 251.388 192.722 243.401C191.9 236.038 189.313 221.381 188.928 219.217C185.718 219.269 155.306 219.718 132.83 219.217C125.402 219.05 119.81 216.797 116.196 212.528C110.726 206.063 111.702 197.011 111.824 196.247L111.625 195.046H111.984C115.477 194.886 197.492 191.136 202.833 192.549C208.83 194.134 211.687 197.261 212.701 203.341C213.754 209.684 230.035 294.055 230.228 294.909L230.279 295.192L214.749 299.737ZM189.461 218.569L189.512 218.839C189.544 218.999 192.478 235.389 193.364 243.331C194.205 250.913 213.452 295.147 215.121 298.96L229.547 294.723C228.494 289.272 213.099 209.594 212.072 203.431C211.109 197.653 208.387 194.661 202.673 193.159C197.614 191.817 118.436 195.386 112.382 195.662L112.478 196.247V196.292C112.478 196.388 111.194 205.626 116.703 212.123C120.195 216.245 125.627 218.415 132.855 218.582C156.475 219.108 188.876 218.582 189.204 218.582L189.461 218.569Z" fill="#EB996E"/>
<path d="M117.768 149.297L119.919 162.599C119.919 162.599 110.578 180.299 109.525 195.515C109.024 202.744 113.171 217.548 113.171 217.548C113.171 217.548 146.067 221.163 163.812 220.7L182.745 219.872L186.083 190.295L164.833 187.226L165.154 146.922C165.154 146.922 169.006 136.309 169.301 133.17C169.982 126.545 169.7 119.842 163.08 111.252L154.786 94.3291L152.019 93.0451L153.335 113.544L129.491 90.8879L117.415 95.2214L113.993 111.368L117.768 149.297Z" fill="#452A98"/>
<g opacity="0.3">
<path opacity="0.3" d="M159.1 192.125C157.553 192.395 146.389 192.555 144.842 192.825C144.578 192.905 144.301 192.932 144.028 192.902C143.754 192.872 143.489 192.787 143.249 192.651C143.056 192.468 142.922 192.232 142.865 191.972C142.808 191.712 142.83 191.441 142.928 191.194C143.133 190.697 143.455 190.256 143.866 189.91C146.569 187.342 150.08 185.859 153.496 184.408C154.587 183.952 155.768 183.484 156.911 183.766C157.472 183.951 157.978 184.27 158.388 184.695C158.797 185.12 159.097 185.639 159.261 186.206C159.586 187.337 159.721 188.516 159.659 189.692" fill="black"/>
</g>
<g opacity="0.3">
<path opacity="0.3" d="M118.648 158.574C122.635 157.643 125.139 153.714 126.756 149.952C128.374 146.19 129.71 142.036 132.881 139.442C135.205 137.516 138.319 136.669 140.328 134.435C141.283 133.34 141.917 132.003 142.158 130.57C142.399 129.138 142.239 127.667 141.696 126.32C141.118 124.946 139.956 123.649 138.486 123.572C136.752 123.482 135.404 124.985 134.345 126.365C129.5 132.712 124.931 139.26 120.638 146.01C118.333 149.637 116.035 154.041 117.64 158.028" fill="black"/>
</g>
<path d="M118.674 97.34C118.674 97.34 111.926 99.4843 109.487 103.715C107.047 107.946 103.003 128.49 102.027 134.024C101.051 139.558 96.3322 162.33 102.027 165.912C107.721 169.494 115.207 163.986 117.159 160.705C119.11 157.425 127.078 140.367 127.078 140.367L119.919 134.351C119.919 134.351 121.203 118.083 120.735 114.661C120.266 111.239 118.674 97.34 118.674 97.34Z" fill="#FFBE9D"/>
<path d="M97.5132 139.577L113.172 140.598L120.323 132.201L122.301 118.975L121.774 93.6742C121.774 93.6742 107.798 97.0832 104.774 107.708C102.534 115.56 97.5132 139.577 97.5132 139.577Z" fill="#FFCB22"/>
<path d="M125.222 109.654C124.323 109.532 123.174 110.591 123.938 113.146C124.58 115.278 125.787 117.351 125.697 118.539C125.607 119.727 125.145 122.198 125.145 123.482C125.089 124.738 124.967 125.989 124.779 127.232L114.122 140.072L123.347 148.212L130.647 136.746C130.647 136.746 132.849 137.112 134.126 135.648L136.052 133.446C136.052 133.446 140.996 131.616 139.988 128.952C139.988 128.952 141.452 127.559 140.123 125.325C140.123 125.325 140.816 123.001 139.808 121.633C139.808 121.633 139.718 118.52 138.89 117.967C138.062 117.415 129.497 117.325 129.497 117.325C129.031 115.902 128.493 114.503 127.886 113.133C126.949 111.586 126.474 109.821 125.222 109.654Z" fill="#FFBE9D"/>
<path d="M128.868 122.282C128.868 122.314 128.644 122.192 128.445 121.89C128.185 121.484 128.072 121.001 128.123 120.521C128.175 120.042 128.388 119.594 128.727 119.252C128.984 119.001 129.202 118.924 129.221 118.956C128.84 119.418 128.577 119.967 128.458 120.555C128.458 121.155 128.599 121.746 128.868 122.282Z" fill="#EB996E"/>
<path d="M139.449 121.402C138.158 121.779 136.83 122.013 135.488 122.102C134.157 122.295 132.809 122.341 131.469 122.237C132.788 122.007 134.119 121.851 135.456 121.768C136.779 121.57 138.112 121.448 139.449 121.402Z" fill="#EB996E"/>
<path d="M140.206 125.074C139.142 125.507 138.019 125.775 136.874 125.871C135.746 126.079 134.592 126.118 133.452 125.986C133.452 125.89 134.967 125.793 136.829 125.537C138.691 125.28 140.187 124.985 140.206 125.074Z" fill="#EB996E"/>
<path d="M140.02 128.843C138.359 129.352 136.612 129.525 134.884 129.35C135.728 129.165 136.588 129.056 137.452 129.023C138.301 128.888 139.16 128.828 140.02 128.843Z" fill="#EB996E"/>
<path d="M131.931 129.999C131.931 130.037 131.751 129.999 131.533 129.877C131.245 129.68 131.043 129.382 130.968 129.042C130.885 128.706 130.931 128.351 131.096 128.047C131.224 127.822 131.366 127.732 131.398 127.758C131.43 127.784 131.135 128.317 131.289 128.965C131.443 129.613 131.976 129.915 131.931 129.999Z" fill="#EB996E"/>
<path d="M129.825 126.943C129.825 126.975 129.613 126.866 129.414 126.59C129.159 126.225 129.012 125.795 128.991 125.351C128.964 124.905 129.062 124.46 129.273 124.067C129.446 123.771 129.613 123.643 129.645 123.668C129.449 124.199 129.341 124.759 129.324 125.325C129.406 125.887 129.575 126.433 129.825 126.943Z" fill="#EB996E"/>
<path d="M137.388 132.894C136.922 133.141 136.411 133.289 135.885 133.331C135.377 133.477 134.843 133.514 134.319 133.44C134.783 133.19 135.295 133.041 135.821 133.003C136.329 132.853 136.864 132.816 137.388 132.894Z" fill="#EB996E"/>
<path d="M133.26 117.383C133.26 117.48 131.976 117.48 130.352 117.64C128.727 117.801 127.475 118.051 127.45 117.961C128.36 117.576 129.332 117.358 130.319 117.319C131.296 117.166 132.291 117.188 133.26 117.383Z" fill="#EB996E"/>
<path d="M161.45 148.244H214.518C215.454 148.244 216.352 148.616 217.014 149.278C217.676 149.941 218.049 150.839 218.049 151.775V189.39H157.932V151.769C157.933 150.836 158.304 149.941 158.964 149.281C159.623 148.62 160.517 148.248 161.45 148.244Z" fill="#E0E0E0"/>
<path d="M218.049 192.125H147.429C147.429 191.406 147.714 190.717 148.222 190.209C148.73 189.701 149.419 189.416 150.138 189.416H218.049V192.125Z" fill="#E0E0E0"/>
<path d="M215.827 150.889H159.755V189.416H215.827V150.889Z" fill="white"/>
<path d="M215.821 189.39C215.821 189.39 215.821 189.146 215.821 188.684C215.821 188.222 215.821 187.528 215.821 186.642C215.821 184.851 215.821 182.232 215.782 178.88C215.782 172.178 215.744 162.567 215.712 150.864L215.846 150.998H159.781L159.948 150.831C159.948 164.59 159.948 177.654 159.948 189.351L159.8 189.197L200.188 189.274L211.744 189.319H214.819H215.609H215.885H215.628H214.851H211.808L200.31 189.358L159.819 189.435H159.665V189.39C159.665 177.686 159.665 164.622 159.665 150.87V150.703H159.832H215.898H216.033V150.87C216.033 162.606 215.981 172.249 215.962 178.97C215.962 182.309 215.962 184.915 215.962 186.674C215.962 187.554 215.962 188.228 215.962 188.69C215.962 189.152 215.821 189.39 215.821 189.39Z" fill="#263238"/>
<path d="M217.753 189.39C217.753 189.486 202.596 189.557 183.901 189.557C165.206 189.557 150.042 189.486 150.042 189.39C150.042 189.294 165.199 189.223 183.901 189.223C202.602 189.223 217.753 189.326 217.753 189.39Z" fill="#263238"/>
<path d="M187.785 184.89C195.922 184.89 202.519 178.293 202.519 170.156C202.519 162.018 195.922 155.422 187.785 155.422C179.647 155.422 173.051 162.018 173.051 170.156C173.051 178.293 179.647 184.89 187.785 184.89Z" fill="#452A98"/>
<path d="M178.63 170.515L181.75 167.562L186.058 171.53L194.539 163.549L197.62 166.464L186.013 177.481L178.63 170.515Z" fill="white"/>
<path d="M124.792 127.232C124.862 127.289 120.439 132.631 114.911 139.154C109.384 145.676 104.845 150.915 104.774 150.87C104.704 150.825 109.127 145.477 114.655 138.948C120.182 132.419 124.721 127.174 124.792 127.232Z" fill="#EB996E"/>
<path d="M124.028 118.956C123.883 120.819 123.628 122.671 123.264 124.503C123.011 126.355 122.647 128.19 122.172 129.999C122.316 128.134 122.572 126.28 122.936 124.445C123.193 122.596 123.558 120.763 124.028 118.956Z" fill="#263238"/>
<path d="M165.154 146.922C165.177 146.791 165.212 146.662 165.257 146.537L165.604 145.458C165.912 144.527 166.368 143.179 166.888 141.503C167.509 139.546 168.027 137.557 168.441 135.545C168.959 133.089 169.189 130.582 169.128 128.073C168.896 123.504 167.613 119.051 165.379 115.059C164.715 113.844 163.987 112.665 163.196 111.528C162.927 111.124 162.695 110.822 162.554 110.61C162.472 110.505 162.4 110.391 162.342 110.27C162.44 110.359 162.529 110.458 162.606 110.565C162.772 110.771 163.023 111.06 163.312 111.458C164.146 112.57 164.91 113.735 165.597 114.944C166.619 116.744 167.46 118.64 168.107 120.606C168.913 123.014 169.377 125.523 169.488 128.06C169.552 130.596 169.311 133.131 168.769 135.61C168.337 137.627 167.792 139.618 167.138 141.574C166.586 143.243 166.098 144.585 165.751 145.503C165.584 145.931 165.45 146.284 165.347 146.562C165.298 146.689 165.233 146.81 165.154 146.922Z" fill="#263238"/>
<path d="M151.512 126.93C151.538 127.229 151.538 127.53 151.512 127.829C151.511 128.181 151.485 128.533 151.435 128.882C151.388 129.347 151.318 129.81 151.223 130.268C151.12 130.824 150.983 131.373 150.812 131.912C150.631 132.537 150.417 133.152 150.17 133.754C149.577 135.113 148.841 136.404 147.974 137.606C147.086 138.806 146.067 139.904 144.938 140.88C144.443 141.303 143.924 141.698 143.384 142.062C142.922 142.39 142.44 142.688 141.94 142.954C141.525 143.194 141.096 143.408 140.656 143.596C140.34 143.75 140.014 143.881 139.68 143.988C139.402 144.102 139.114 144.19 138.819 144.251C138.787 144.18 140.02 143.802 141.792 142.768C142.277 142.489 142.746 142.185 143.198 141.856C143.699 141.522 144.18 141.099 144.707 140.669C146.919 138.722 148.673 136.311 149.843 133.607C150.087 133.019 150.302 132.419 150.485 131.809C150.662 131.278 150.81 130.738 150.928 130.191C151.46 128.214 151.448 126.93 151.512 126.93Z" fill="#263238"/>
<path d="M169.16 132.766C169.124 132.73 169.093 132.689 169.07 132.644L168.846 132.252C168.634 131.899 168.345 131.417 167.979 130.82C167.613 130.223 167.042 129.491 166.444 128.657C165.847 127.822 165.09 126.911 164.287 125.89C160.987 121.858 156.115 116.562 150.529 110.906C144.944 105.249 139.699 100.319 135.853 96.7815L133.234 94.4382C132.463 93.7577 131.796 93.1542 131.237 92.692L129.953 91.607L129.626 91.3181C129.584 91.2881 129.547 91.2512 129.517 91.209C129.563 91.2316 129.606 91.2596 129.645 91.2924C129.741 91.363 129.857 91.4465 129.992 91.5556L131.314 92.5892L133.349 94.297C134.139 94.9775 135.025 95.7543 136.001 96.6082C139.898 100.075 145.156 104.999 150.767 110.649C156.378 116.298 161.212 121.64 164.467 125.716C165.263 126.75 165.982 127.681 166.599 128.516L168.088 130.724C168.428 131.366 168.73 131.828 168.903 132.194L169.109 132.579C169.152 132.704 169.169 132.766 169.16 132.766Z" fill="#263238"/>
<path d="M156.693 162.465C156.575 162.506 156.451 162.53 156.327 162.535L155.28 162.683C154.369 162.805 153.04 162.946 151.428 163.094C148.148 163.389 143.596 163.627 138.588 163.569C133.581 163.511 129.01 163.145 125.748 162.773C124.111 162.587 122.789 162.407 121.896 162.259L120.85 162.092C120.727 162.079 120.606 162.051 120.49 162.009C120.614 161.993 120.739 161.993 120.863 162.009L121.915 162.118C122.827 162.227 124.156 162.368 125.767 162.522C129.035 162.837 133.574 163.164 138.607 163.222C143.641 163.28 148.167 163.074 151.447 162.843C153.085 162.728 154.414 162.625 155.299 162.542L156.352 162.458C156.466 162.448 156.58 162.451 156.693 162.465Z" fill="#263238"/>
<path d="M184.498 148.199C184.498 148.199 195.014 144.097 196.009 143.769C197.004 143.442 206.197 142.723 206.197 142.723L218.048 146.979C218.048 146.979 218.158 149.413 215.391 149.085C212.951 148.673 210.546 148.081 208.194 147.313L206.531 148.302L184.498 148.199Z" fill="#FFBE9D"/>
<path d="M217.477 149.759C217.754 150.318 218.473 150.401 219.025 150.697C219.535 150.995 219.954 151.429 220.234 151.95C220.513 152.471 220.644 153.059 220.61 153.65C220.518 154.83 220.127 155.968 219.474 156.956C219.274 157.355 218.984 157.702 218.627 157.971C218.444 158.098 218.227 158.166 218.004 158.166C217.781 158.166 217.564 158.098 217.381 157.971C217.206 157.757 217.088 157.502 217.038 157.23C216.989 156.958 217.01 156.678 217.099 156.417C217.439 154.369 216.996 151.775 217.477 149.753" fill="#FFBE9D"/>
<path d="M229.393 291.77L229.753 292.771C229.753 292.771 249.269 293.535 250.605 296.707L216.656 308.635L213.144 297.175C219.018 297.74 224.392 296.148 229.393 291.77Z" fill="#455A64"/>
<g opacity="0.6">
<path opacity="0.6" d="M217.856 299.576C217.564 299.792 217.361 300.107 217.286 300.462C217.212 300.818 217.271 301.188 217.452 301.502C217.656 301.808 217.971 302.022 218.331 302.1C218.69 302.178 219.065 302.113 219.378 301.92C219.688 301.693 219.902 301.359 219.979 300.983C220.056 300.607 219.99 300.215 219.795 299.885C219.55 299.596 219.203 299.412 218.827 299.373C218.45 299.333 218.072 299.441 217.773 299.673" fill="white"/>
</g>
<g opacity="0.6">
<path opacity="0.6" d="M216.655 308.635L215.814 305.881L248.659 295.455C248.659 295.455 250.399 295.583 250.585 296.739L216.655 308.635Z" fill="white"/>
</g>
<path d="M229.906 292.829C229.958 292.996 229.155 293.362 228.526 294.184C227.897 295.005 227.711 295.853 227.538 295.84C227.364 295.827 227.268 294.781 228.045 293.805C228.822 292.829 229.887 292.662 229.906 292.829Z" fill="#263238"/>
<path d="M233.983 293.047C234.08 293.195 233.457 293.728 233.142 294.627C232.828 295.525 232.924 296.328 232.757 296.379C232.59 296.431 232.154 295.525 232.571 294.415C232.988 293.304 233.926 292.893 233.983 293.047Z" fill="#263238"/>
<path d="M237.501 296.604C237.366 296.694 236.859 295.962 236.949 294.89C237.039 293.818 237.707 293.201 237.822 293.311C237.938 293.42 237.636 294.081 237.559 294.948C237.482 295.814 237.662 296.527 237.501 296.604Z" fill="#263238"/>
</svg>
