<svg width="145" height="145" viewBox="0 0 145 145" fill="none" xmlns="http://www.w3.org/2000/svg">
<path d="M97.2803 48.7905C97.2803 47.6175 96.3293 46.6665 95.1562 46.6665H22.9395C21.7664 46.6665 20.8154 47.6175 20.8154 48.7905C20.8154 49.9636 21.7664 50.9145 22.9395 50.9145H95.1562C96.3293 50.9145 97.2803 49.9636 97.2803 48.7905Z" fill="#452A98"/>
<path d="M75.4354 65.5468H22.9395C21.7664 65.5468 20.8154 66.4978 20.8154 67.6708C20.8154 68.8438 21.7664 69.7948 22.9395 69.7948H75.4354C76.6084 69.7948 77.5594 68.8438 77.5594 67.6708C77.5594 66.4978 76.6084 65.5468 75.4354 65.5468Z" fill="#452A98"/>
<path d="M22.9395 88.6751H75.4354C76.6084 88.6751 77.5594 87.7241 77.5594 86.5511C77.5594 85.3781 76.6084 84.4271 75.4354 84.4271H22.9395C21.7664 84.4271 20.8154 85.3781 20.8154 86.5511C20.8154 87.7241 21.7664 88.6751 22.9395 88.6751Z" fill="#452A98"/>
<path d="M22.9395 107.555H95.1562C96.3293 107.555 97.2803 106.604 97.2803 105.431C97.2803 104.258 96.3293 103.307 95.1562 103.307H22.9395C21.7664 103.307 20.8154 104.258 20.8154 105.431C20.8154 106.604 21.7664 107.555 22.9395 107.555Z" fill="#452A98"/>
<path d="M115.688 49.5795V9.2041C115.688 4.1291 111.559 0 106.484 0H58.48C57.307 0 56.356 0.950996 56.356 2.12402C56.356 3.29705 57.307 4.24805 58.48 4.24805H106.484C109.217 4.24805 111.44 6.47147 111.44 9.2041V49.5795C97.2123 50.6665 85.9521 62.589 85.9521 77.1108C85.9521 91.7539 97.3301 103.564 111.44 104.642V135.796C111.44 138.529 109.217 140.752 106.484 140.752H13.0273C10.2947 140.752 8.07129 138.529 8.07129 135.796V33.5596H28.1787C33.2537 33.5596 37.3828 29.4305 37.3828 24.3555V4.24805H48.5679C49.7409 4.24805 50.6919 3.29705 50.6919 2.12402C50.6919 0.950996 49.7409 0 48.5679 0H35.2588C34.7247 0 34.1676 0.210986 33.757 0.622197L4.44544 29.9337C4.04187 30.337 3.82324 30.9017 3.82324 31.4355V135.796C3.82324 140.871 7.95234 145 13.0273 145H106.484C111.559 145 115.688 140.871 115.688 135.796V104.639C119.966 104.31 124.112 102.996 127.788 100.783C128.793 100.178 129.117 98.8724 128.512 97.8674C127.907 96.8628 126.602 96.538 125.597 97.1432C121.976 99.323 117.816 100.475 113.565 100.475C100.682 100.475 90.2005 89.994 90.2005 77.1108C90.2005 64.2276 100.682 53.7466 113.565 53.7466C126.448 53.7466 136.929 64.2276 136.929 77.1108C136.929 82.1932 135.326 87.0244 132.293 91.0827C131.591 92.0223 131.783 93.3534 132.723 94.0557C133.663 94.7578 134.994 94.5652 135.696 93.6258C139.282 88.8278 141.177 83.117 141.177 77.1111C141.177 62.6001 129.925 50.6676 115.688 49.5795ZM33.1348 7.2517V24.3555C33.1348 27.0881 30.9113 29.3115 28.1787 29.3115H11.0749L33.1348 7.2517Z" fill="#452A98"/>
<path d="M127.37 74.9868H115.689V63.3053C115.689 62.1322 114.738 61.1812 113.565 61.1812C112.392 61.1812 111.441 62.1322 111.441 63.3053V74.9868H99.759C98.586 74.9868 97.635 75.9378 97.635 77.1108C97.635 78.2839 98.586 79.2349 99.759 79.2349H111.441V90.9164C111.441 92.0894 112.392 93.0404 113.565 93.0404C114.738 93.0404 115.689 92.0894 115.689 90.9164V79.2349H127.37C128.543 79.2349 129.494 78.2839 129.494 77.1108C129.494 75.9378 128.543 74.9868 127.37 74.9868Z" fill="#452A98"/>
</svg>
