<svg width="134" height="86" viewBox="0 0 134 86" fill="none" xmlns="http://www.w3.org/2000/svg">
<path d="M8.46 52.288C7.068 52.288 5.784 52.06 4.608 51.604C3.432 51.124 2.484 50.428 1.764 49.516C1.068 48.58 0.72 47.464 0.72 46.168H5.184C5.184 46.744 5.496 47.212 6.12 47.572C6.768 47.932 7.584 48.112 8.568 48.112C9.504 48.112 10.224 47.956 10.728 47.644C11.256 47.308 11.52 46.888 11.52 46.384C11.52 45.856 11.232 45.484 10.656 45.268C10.08 45.052 9.156 44.836 7.884 44.62C6.468 44.38 5.292 44.116 4.356 43.828C3.42 43.516 2.604 43 1.908 42.28C1.236 41.536 0.9 40.492 0.9 39.148C0.9 38.116 1.224 37.192 1.872 36.376C2.544 35.536 3.444 34.888 4.572 34.432C5.7 33.952 6.96 33.712 8.352 33.712C10.512 33.712 12.276 34.24 13.644 35.296C15.012 36.328 15.696 37.768 15.696 39.616H11.232C11.232 39.112 10.932 38.692 10.332 38.356C9.756 38.02 9.072 37.852 8.28 37.852C7.512 37.852 6.864 38.008 6.336 38.32C5.832 38.632 5.58 39.028 5.58 39.508C5.58 39.94 5.856 40.264 6.408 40.48C6.96 40.696 7.836 40.9 9.036 41.092C10.452 41.332 11.64 41.608 12.6 41.92C13.56 42.208 14.4 42.724 15.12 43.468C15.84 44.188 16.2 45.196 16.2 46.492C16.224 48.412 15.516 49.864 14.076 50.848C12.66 51.808 10.788 52.288 8.46 52.288ZM20.7982 32.092C20.0062 32.092 19.3342 31.828 18.7822 31.3C18.2542 30.748 17.9902 30.076 17.9902 29.284C17.9902 28.516 18.2542 27.868 18.7822 27.34C19.3342 26.788 20.0062 26.512 20.7982 26.512C21.5662 26.512 22.2142 26.788 22.7422 27.34C23.2942 27.868 23.5702 28.516 23.5702 29.284C23.5702 30.076 23.2942 30.748 22.7422 31.3C22.2142 31.828 21.5662 32.092 20.7982 32.092ZM18.4582 34H23.1382V52H18.4582V34ZM45.6961 33.712C48.1201 33.712 50.0761 34.456 51.5641 35.944C53.0521 37.432 53.7961 39.628 53.7961 42.532V52H49.1161V42.532C49.1161 41.092 48.8401 40.024 48.2881 39.328C47.7361 38.632 46.8721 38.284 45.6961 38.284C44.5441 38.284 43.6801 38.632 43.1041 39.328C42.5521 40.024 42.2761 41.092 42.2761 42.532V52H37.5961V42.532C37.5961 41.092 37.3201 40.024 36.7681 39.328C36.2161 38.632 35.3521 38.284 34.1761 38.284C33.0241 38.284 32.1601 38.632 31.5841 39.328C31.0321 40.024 30.7561 41.092 30.7561 42.532V52H26.0761V42.532C26.0761 39.628 26.8201 37.432 28.3081 35.944C29.7961 34.456 31.7521 33.712 34.1761 33.712C35.3761 33.712 36.4681 33.928 37.4521 34.36C38.4601 34.768 39.2881 35.38 39.9361 36.196C40.5841 35.38 41.4001 34.768 42.3841 34.36C43.3921 33.928 44.4961 33.712 45.6961 33.712ZM55.9589 43C55.9589 41.32 56.3669 39.772 57.1829 38.356C58.0229 36.916 59.1509 35.788 60.5669 34.972C61.9829 34.132 63.5309 33.712 65.2109 33.712C66.8909 33.712 68.4389 34.132 69.8549 34.972C71.2709 35.788 72.3989 36.916 73.2389 38.356C74.0789 39.772 74.4989 41.32 74.4989 43C74.4989 44.68 74.0789 46.24 73.2389 47.68C72.3989 49.096 71.2709 50.224 69.8549 51.064C68.4389 51.88 66.8909 52.288 65.2109 52.288C63.4589 52.288 61.9469 51.832 60.6749 50.92V59.2H55.9589V43ZM65.2469 47.716C66.5669 47.716 67.6589 47.272 68.5229 46.384C69.3869 45.472 69.8189 44.344 69.8189 43C69.8189 41.656 69.3869 40.54 68.5229 39.652C67.6589 38.74 66.5669 38.284 65.2469 38.284C63.9269 38.284 62.8229 38.74 61.9349 39.652C61.0469 40.54 60.6029 41.656 60.6029 43C60.6029 44.344 61.0469 45.472 61.9349 46.384C62.8229 47.272 63.9269 47.716 65.2469 47.716ZM79.2982 32.092C78.5062 32.092 77.8342 31.828 77.2822 31.3C76.7542 30.748 76.4902 30.076 76.4902 29.284C76.4902 28.516 76.7542 27.868 77.2822 27.34C77.8342 26.788 78.5062 26.512 79.2982 26.512C80.0662 26.512 80.7142 26.788 81.2422 27.34C81.7942 27.868 82.0702 28.516 82.0702 29.284C82.0702 30.076 81.7942 30.748 81.2422 31.3C80.7142 31.828 80.0662 32.092 79.2982 32.092ZM76.9582 34H81.6382V52H76.9582V34ZM91.6045 52.288C90.2125 52.288 88.9285 52.06 87.7525 51.604C86.5765 51.124 85.6285 50.428 84.9085 49.516C84.2125 48.58 83.8645 47.464 83.8645 46.168H88.3285C88.3285 46.744 88.6405 47.212 89.2645 47.572C89.9125 47.932 90.7285 48.112 91.7125 48.112C92.6485 48.112 93.3685 47.956 93.8725 47.644C94.4005 47.308 94.6645 46.888 94.6645 46.384C94.6645 45.856 94.3765 45.484 93.8005 45.268C93.2245 45.052 92.3005 44.836 91.0285 44.62C89.6125 44.38 88.4365 44.116 87.5005 43.828C86.5645 43.516 85.7485 43 85.0525 42.28C84.3805 41.536 84.0445 40.492 84.0445 39.148C84.0445 38.116 84.3685 37.192 85.0165 36.376C85.6885 35.536 86.5885 34.888 87.7165 34.432C88.8445 33.952 90.1045 33.712 91.4965 33.712C93.6565 33.712 95.4205 34.24 96.7885 35.296C98.1565 36.328 98.8405 37.768 98.8405 39.616H94.3765C94.3765 39.112 94.0765 38.692 93.4765 38.356C92.9005 38.02 92.2165 37.852 91.4245 37.852C90.6565 37.852 90.0085 38.008 89.4805 38.32C88.9765 38.632 88.7245 39.028 88.7245 39.508C88.7245 39.94 89.0005 40.264 89.5525 40.48C90.1045 40.696 90.9805 40.9 92.1805 41.092C93.5965 41.332 94.7845 41.608 95.7445 41.92C96.7045 42.208 97.5445 42.724 98.2645 43.468C98.9845 44.188 99.3445 45.196 99.3445 46.492C99.3685 48.412 98.6605 49.864 97.2205 50.848C95.8045 51.808 93.9325 52.288 91.6045 52.288ZM109.055 33.712C111.455 33.712 113.375 34.456 114.815 35.944C116.255 37.408 116.975 39.604 116.975 42.532V52H112.295V42.532C112.295 41.068 112.031 40 111.503 39.328C110.999 38.632 110.183 38.284 109.055 38.284C107.927 38.284 107.099 38.632 106.571 39.328C106.067 40 105.815 41.068 105.815 42.532V52H101.135V26.8H105.815V34.612C106.703 34.012 107.783 33.712 109.055 33.712Z" fill="#452A98"/>
<line x1="103.5" y1="48" x2="103.5" y2="18" stroke="#452A98" stroke-width="5"/>
</svg>
